,
  Hottest scene tracker on the net !!!   http://www.scenetime.com
 
         Please seed back after your download is completed

           Credit goes  to all seeders and  http://www.scenetime.com
 



...................................NFO:.................................................                                                                                                     
       
     
     
       
       
     
     
                                         
                                         
                EXVID                    
                                         
         
                                         
         Filled the Archives             
                                         
         
                                         
                With:                    
                                         
         
                                         
                                    
     E240                           
                                    
     SP               (C) 2009      
                                         
     
     
     
                                                                                  
                                                                                   
                Ghost.Dad.1990.iNTERNAL.DVDRip.XviD-EXViDiNT                        
                                                                                   
                                                                                  
     
                                                                                               
EXViD aims to iNTERNAL those releases which have been lost in the archives.
EXViD aims to PRE non-internal releases which have poor sources and are likely skipped by others. 
http://www.imdb.com/title/tt0099654/
Subtitles: None
Date: 2010.12

Director: Sidney Poitier
Genre: Comedy | Family | Fantasy
Plot: Elliot Hopper is a widower with three children, he is currently working on a deal. It 
seems like his wife illness was very costly and this deal could put them out of the red. 
However he gets into a cab that is driven by a maniac, and Elliot crashes and the next thing 
he knows he is floating around and finds himself in the lab of a scientist who studies 
paranormal. Elliot asks the scientist to send him back so that he could finish the deal 
and make sure that his children are taken cared of.

Cast
Cast overview, first billed only:
Bill Cosby 	Bill Cosby 	... 	
Elliot Hopper
Kimberly Russell 	Kimberly Russell 	... 	
Diane Hopper
Denise Nicholas 	Denise Nicholas 	... 	
Joan
Ian Bannen 	Ian Bannen 	... 	
Sir Edith Moser
Christine Ebersole 	Christine Ebersole 	... 	
Carol
Barry Corbin 	Barry Corbin 	... 	
Mr. Emery Collins
Salim Grant 	Salim Grant 	... 	
Danny Hopper
Brooke Fontaine 	Brooke Fontaine 	... 	
Amanda Hopper
Dakin Matthews 	Dakin Matthews 	... 	
Mr. Seymour
Dana Ashbrook 	Dana Ashbrook 	... 	
Tony Ricker
Omar Gooding 	Omar Gooding 	... 	
Stuart
Raynor Scheine 	Raynor Scheine 	... 	
Curtis Burch, the Cabbie
Arnold Stang 	Arnold Stang 	... 	
Mr. Cohen, elderly patient
Brian Stokes Mitchell 	Brian Stokes Mitchell 	... 	
Teacher (as Brian Mitchell)
Lisa Mene Nemacheck 	Lisa Mene Nemacheck 	... 	
Jonelle
Full cast and crew  

Stats:
General
Format                           : AVI
Format/Info                      : Audio Video Interleave
File size                        : 699 MiB
Duration                         : 1h 20mn
Overall bit rate                 : 1 219 Kbps
Writing application              : VirtualDubMod 1.5.10.2 (build 2542/release)
Writing library                  : VirtualDubMod build 2542/release

Video
ID                               : 0
Format                           : MPEG-4 Visual
Format profile                   : Advanced Simple@L5
Format settings, BVOP            : Yes
Format settings, QPel            : No
Format settings, GMC             : No warppoints
Format settings, Matrix          : Default (H.263)
Codec ID                         : XVID
Codec ID/Hint                    : XviD
Duration                         : 1h 20mn
Bit rate                         : 1 061 Kbps
Width                            : 576 pixels
Height                           : 416 pixels
Display aspect ratio             : 1.385
Frame rate                       : 25.000 fps
Resolution                       : 8 bits
Colorimetry                      : 4:2:0
Scan type                        : Progressive
Bits/(Pixel*Frame)               : 0.177
Stream size                      : 609 MiB (87%)
Writing library                  : XviD 1.2.1 (UTC 2008-12-04)

Audio
ID                               : 1
Format                           : MPEG Audio
Format version                   : Version 1
Format profile                   : Layer 3
Mode                             : Joint stereo
Codec ID                         : 55
Codec ID/Hint                    : MP3
Duration                         : 1h 20mn
Bit rate mode                    : Variable
Bit rate                         : 145 Kbps
Minimum bit rate                 : 32.0 Kbps
Channel(s)                       : 2 channels
Sampling rate                    : 48.0 KHz
Stream size                      : 83.2 MiB (12%)
Alignment                        : Aligned on interleaves
Interleave, duration             : 24 ms (0.60 video frame)
Interleave, preload duration     : 444 ms
Writing library                  : LAME3.98r
Encoding settings                : -m j -V 4 -q 0 -lowpass 17.5 --vbr-new -b 32




Release notes:
enjoy!

Looking for:
75TB+ Archives
                                                                                                    
Greets: CRBS EPiSODE FiCO FLS iLS KLASSiGER LiPSYNC MADE NODLABS RUNNER TNAN       
   

                                                                    ASCII DONE BY XX^NFO 2oo9